<svg preserveAspectRatio="xMidYMid meet" data-bbox="0 0 35.32 35.68" viewBox="0 0 35.32 35.68" xmlns="http://www.w3.org/2000/svg" data-type="color" role="presentation" aria-hidden="true" aria-label="">
    <g>
        <path d="M19.54 0h-.55C8.5 0 0 8.5 0 18.99v.91c0 8.72 7.07 15.78 15.78 15.78h19.54v-19.9C35.32 7.06 28.25 0 19.54 0m2.82 19.22c-.98-.98-2.58-.98-3.56 0l-.03.03-.03.03a2.52 2.52 0 0 0 3.13 3.91l5.23 7.38c-5.71-1.97-11.86-3.51-17.57-5.48-1.9-1.05-3.1-2.97-3.08-5.01.02-2.09 1.3-3.48 1.62-3.81 1.19-1.31 2.47-2.66 3.84-4.03 1.32-1.32 2.62-2.55 3.89-3.7.33-.33 1.72-1.6 3.81-1.62 2.04-.02 3.96 1.18 5.01 3.08 1.97 5.71 3.51 11.86 5.48 17.57l-7.38-5.23c.62-.97.5-2.28-.35-3.13Z" fill="#34a6da" data-color="1"></path>
    </g>
</svg>